<?xml version="1.0" standalone="no"?>
<!DOCTYPE svg PUBLIC "-//W3C//DTD SVG 20010904//EN"
 "http://www.w3.org/TR/2001/REC-SVG-20010904/DTD/svg10.dtd">
<svg version="1.0" xmlns="http://www.w3.org/2000/svg"
 width="629.000000pt" height="552.000000pt" viewBox="0 0 629.000000 552.000000"
 preserveAspectRatio="xMidYMid meet">

<g transform="translate(0.000000,552.000000) scale(0.100000,-0.100000)"
fill="#000000" stroke="none">
<path d="M3128 4813 c18 -2 45 -2 60 0 15 2 0 4 -33 4 -33 0 -45 -2 -27 -4z"/>
<path d="M2998 4803 c12 -2 30 -2 40 0 9 3 -1 5 -23 4 -22 0 -30 -2 -17 -4z"/>
<path d="M3288 4803 c12 -2 30 -2 40 0 9 3 -1 5 -23 4 -22 0 -30 -2 -17 -4z"/>
<path d="M2918 4793 c6 -2 18 -2 25 0 6 3 1 5 -13 5 -14 0 -19 -2 -12 -5z"/>
<path d="M3373 4793 c9 -2 23 -2 30 0 6 3 -1 5 -18 5 -16 0 -22 -2 -12 -5z"/>
<path d="M2868 4783 c7 -3 16 -2 19 1 4 3 -2 6 -13 5 -11 0 -14 -3 -6 -6z"/>
<path d="M3438 4783 c7 -3 16 -2 19 1 4 3 -2 6 -13 5 -11 0 -14 -3 -6 -6z"/>
<path d="M2818 4773 c7 -3 16 -2 19 1 4 3 -2 6 -13 5 -11 0 -14 -3 -6 -6z"/>
<path d="M3478 4773 c6 -2 18 -2 25 0 6 3 1 5 -13 5 -14 0 -19 -2 -12 -5z"/>
<path d="M2778 4763 c7 -3 16 -2 19 1 4 3 -2 6 -13 5 -11 0 -14 -3 -6 -6z"/>
<path d="M3558 4753 c7 -3 16 -2 19 1 4 3 -2 6 -13 5 -11 0 -14 -3 -6 -6z"/>
<path d="M2610 4710 c-8 -5 -10 -10 -5 -10 6 0 17 5 25 10 8 5 11 10 5 10 -5
0 -17 -5 -25 -10z"/>
<path d="M2498 4659 c-32 -16 -58 -32 -58 -34 0 -5 119 52 129 61 13 12 -22
-1 -71 -27z"/>
<path d="M3751 4686 c10 -9 109 -56 109 -51 0 5 -95 55 -106 55 -4 0 -5 -2 -3
-4z"/>
<path d="M2404 4604 c-18 -14 -18 -15 4 -4 12 6 22 13 22 15 0 8 -5 6 -26 -11z"/>
<path d="M3890 4616 c0 -3 9 -10 20 -16 11 -6 20 -8 20 -6 0 3 -9 10 -20 16
-11 6 -20 8 -20 6z"/>
<path d="M3970 4566 c0 -2 14 -14 30 -26 17 -12 30 -19 30 -16 0 2 -13 14 -30
26 -16 12 -30 19 -30 16z"/>
<path d="M2299 4533 c-13 -16 -12 -17 4 -4 16 13 21 21 13 21 -2 0 -10 -8 -17
-17z"/>
<path d="M2259 4503 c-13 -16 -12 -17 4 -4 9 7 17 15 17 17 0 8 -8 3 -21 -13z"/>
<path d="M4055 4500 c10 -11 20 -20 23 -20 3 0 -3 9 -13 20 -10 11 -20 20 -23
20 -3 0 3 -9 13 -20z"/>
<path d="M2195 4448 l-40 -43 43 40 c39 36 47 45 39 45 -2 0 -21 -19 -42 -42z"/>
<path d="M4180 4385 c52 -52 97 -95 100 -95 2 0 -38 43 -90 95 -52 52 -97 95
-100 95 -2 0 38 -43 90 -95z"/>
<path d="M2074 4328 c-42 -46 -89 -103 -63 -78 30 29 112 120 107 120 -2 0
-22 -19 -44 -42z"/>
<path d="M4304 4247 c16 -20 30 -37 33 -37 7 0 -36 58 -49 66 -7 4 1 -9 16
-29z"/>
<path d="M1970 4200 c-12 -16 -19 -30 -16 -30 2 0 14 14 26 30 12 17 19 30 16
30 -2 0 -14 -13 -26 -30z"/>
<path d="M4365 4163 c15 -24 30 -43 32 -43 7 0 -31 61 -46 73 -8 7 -2 -7 14
-30z"/>
<path d="M1928 4138 c-22 -34 -42 -74 -31 -63 14 15 55 85 50 85 -3 0 -11 -10
-19 -22z"/>
<path d="M4410 4090 c6 -11 13 -20 16 -20 2 0 0 9 -6 20 -6 11 -13 20 -16 20
-2 0 0 -9 6 -20z"/>
<path d="M2700 4031 c-135 -43 -245 -126 -321 -243 -113 -176 -114 -419 0
-595 102 -158 237 -241 429 -264 133 -17 732 -6 801 14 186 55 337 201 393
380 31 99 31 235 1 332 -42 135 -150 265 -272 329 -126 65 -132 66 -575 65
-355 0 -407 -2 -456 -18z m905 -6 c182 -48 333 -197 393 -389 26 -83 21 -235
-10 -322 -62 -177 -197 -303 -384 -361 -53 -16 -99 -18 -444 -18 -345 0 -391
2 -444 18 -196 61 -343 207 -397 397 -18 63 -16 224 3 286 59 189 210 340 389
388 81 22 810 22 894 1z"/>
<path d="M2818 3783 c7 -3 16 -2 19 1 4 3 -2 6 -13 5 -11 0 -14 -3 -6 -6z"/>
<path d="M3508 3783 c7 -3 16 -2 19 1 4 3 -2 6 -13 5 -11 0 -14 -3 -6 -6z"/>
<path d="M3465 3770 c-3 -6 1 -7 9 -4 18 7 21 14 7 14 -6 0 -13 -4 -16 -10z"/>
<path d="M2749 3753 c-13 -16 -12 -17 4 -4 9 7 17 15 17 17 0 8 -8 3 -21 -13z"/>
<path d="M2880 3766 c0 -2 8 -10 18 -17 15 -13 16 -12 3 4 -13 16 -21 21 -21
13z"/>
<path d="M3586 3748 c10 -14 21 -24 23 -22 3 3 -6 15 -18 27 l-24 22 19 -27z"/>
<path d="M2724 3480 c0 -129 2 -182 3 -117 2 64 2 170 0 235 -1 64 -3 11 -3
-118z"/>
<path d="M3614 3480 c0 -129 2 -182 3 -117 2 64 2 170 0 235 -1 64 -3 11 -3
-118z"/>
<path d="M2924 3480 c0 -124 2 -174 3 -112 2 61 2 163 0 225 -1 61 -3 11 -3
-113z"/>
<path d="M3420 3241 c0 -6 4 -13 10 -16 6 -3 7 1 4 9 -7 18 -14 21 -14 7z"/>
<path d="M3578 3208 c-15 -15 -23 -28 -19 -28 9 0 56 49 50 53 -2 1 -16 -10
-31 -25z"/>
<path d="M2740 3216 c0 -2 8 -10 18 -17 15 -13 16 -12 3 4 -13 16 -21 21 -21
13z"/>
<path d="M2889 3203 c-13 -16 -12 -17 4 -4 16 13 21 21 13 21 -2 0 -10 -8 -17
-17z"/>
<path d="M2813 3173 c9 -2 23 -2 30 0 6 3 -1 5 -18 5 -16 0 -22 -2 -12 -5z"/>
<path d="M3503 3173 c9 -2 23 -2 30 0 6 3 -1 5 -18 5 -16 0 -22 -2 -12 -5z"/>
<path d="M1855 4009 c-4 -6 -5 -12 -2 -15 2 -3 7 2 10 11 7 17 1 20 -8 4z"/>
<path d="M4480 3955 c0 -5 5 -17 10 -25 5 -8 10 -10 10 -5 0 6 -5 17 -10 25
-5 8 -10 11 -10 5z"/>
<path d="M1816 3925 c-9 -26 -7 -32 5 -12 6 10 9 21 6 23 -2 3 -7 -2 -11 -11z"/>
<path d="M4500 3905 c0 -5 5 -17 10 -25 5 -8 10 -10 10 -5 0 6 -5 17 -10 25
-5 8 -10 11 -10 5z"/>
<path d="M1776 3815 c-3 -9 -6 -22 -5 -28 0 -7 5 -1 10 12 5 13 8 26 5 28 -2
2 -6 -3 -10 -12z"/>
<path d="M4551 3754 c0 -11 3 -14 6 -6 3 7 2 16 -1 19 -3 4 -6 -2 -5 -13z"/>
<path d="M1752 3720 c0 -14 2 -19 5 -12 2 6 2 18 0 25 -3 6 -5 1 -5 -13z"/>
<path d="M4561 3714 c0 -11 3 -14 6 -6 3 7 2 16 -1 19 -3 4 -6 -2 -5 -13z"/>
<path d="M1741 3674 c0 -11 3 -14 6 -6 3 7 2 16 -1 19 -3 4 -6 -2 -5 -13z"/>
<path d="M4572 3670 c0 -14 2 -19 5 -12 2 6 2 18 0 25 -3 6 -5 1 -5 -13z"/>
<path d="M1731 3624 c0 -11 3 -14 6 -6 3 7 2 16 -1 19 -3 4 -6 -2 -5 -13z"/>
<path d="M4582 3620 c0 -14 2 -19 5 -12 2 6 2 18 0 25 -3 6 -5 1 -5 -13z"/>
<path d="M1722 3560 c0 -19 2 -27 5 -17 2 9 2 25 0 35 -3 9 -5 1 -5 -18z"/>
<path d="M4592 3550 c0 -19 2 -27 5 -17 2 9 2 25 0 35 -3 9 -5 1 -5 -18z"/>
<path d="M1713 3420 c0 -47 2 -66 4 -42 2 23 2 61 0 85 -2 23 -4 4 -4 -43z"/>
<path d="M4602 3094 l-2 -392 -137 -8 c-164 -10 -2271 -11 -2558 -2 -158 5
-187 4 -140 -4 71 -13 2596 -18 2742 -5 l92 8 3 -136 3 -136 425 1 425 0 244
-822 c135 -453 247 -833 249 -846 l4 -22 -668 2 -669 3 -3 167 c-1 93 -6 168
-10 168 -4 0 -14 -5 -22 -11 -13 -9 -12 -10 2 -5 16 5 18 -9 20 -167 l3 -172
683 -3 c375 -1 682 1 682 5 -1 5 -115 391 -253 858 l-253 850 -427 3 -427 2
-3 528 c-2 489 -2 499 -5 136z"/>
<path d="M857 2423 c-3 -6 -432 -1442 -503 -1685 -5 -17 32 -18 680 -18 l686
0 0 170 c0 157 1 169 18 164 14 -5 15 -4 2 5 -8 6 -18 11 -22 11 -5 0 -8 -76
-8 -170 l0 -170 -674 0 -674 0 42 143 c24 78 137 458 252 844 l209 703 430 3
430 2 -432 3 c-237 1 -434 -1 -436 -5z"/>
<path d="M955 2185 c-30 -29 -32 -64 -6 -96 l19 -24 294 -3 c287 -3 295 -2
321 18 37 29 37 80 1 109 -26 20 -38 21 -316 21 l-289 0 -24 -25z m623 -1 c31
-22 30 -78 -2 -99 -21 -14 -64 -15 -316 -13 -275 3 -292 4 -306 22 -20 28 -17
63 6 86 19 19 33 20 308 20 244 0 291 -2 310 -16z"/>
<path d="M4726 2189 c-31 -25 -34 -66 -7 -100 l19 -24 294 -1 293 0 -293 5
c-276 6 -295 7 -308 25 -21 30 -17 72 8 90 19 14 66 16 308 16 321 0 330 -2
330 -65 0 -24 -7 -39 -22 -49 -12 -9 -18 -16 -12 -16 20 0 44 37 44 68 0 21
-8 37 -26 51 -26 20 -38 21 -314 21 -276 0 -288 -1 -314 -21z"/>
<path d="M3793 1990 l-63 -5 60 -100 c33 -55 60 -106 60 -113 0 -11 96 127
143 205 8 14 -102 21 -200 13z"/>
<path d="M2392 1883 l-72 -108 73 -5 c39 -3 102 -4 139 -2 l66 4 -60 101 c-34
56 -64 106 -68 110 -4 4 -39 -41 -78 -100z"/>
<path d="M812 1864 c-16 -11 -22 -25 -22 -54 0 -71 -4 -70 410 -70 413 0 410
-1 410 69 0 73 9 71 -406 71 -318 0 -373 -2 -392 -16z m772 -10 c21 -20 20
-63 -1 -86 -15 -17 -40 -18 -381 -18 -326 0 -367 2 -384 17 -22 20 -23 61 -1
85 15 17 40 18 384 18 321 0 370 -2 383 -16z"/>
<path d="M4720 1860 c-11 -11 -20 -33 -20 -50 0 -17 9 -39 20 -50 19 -19 33
-20 394 -20 l375 0 20 26 c12 15 21 34 21 44 0 10 -9 29 -21 44 l-20 26 -375
0 c-361 0 -375 -1 -394 -20z m775 -4 c11 -8 18 -26 18 -46 0 -60 1 -60 -402
-60 -325 0 -366 2 -383 17 -22 20 -23 61 -1 85 15 17 40 18 383 18 293 0 370
-3 385 -14z"/>
<path d="M700 1500 c-30 -30 -27 -83 6 -109 26 -20 37 -21 438 -21 448 0 445
0 467 57 10 28 -10 77 -36 87 -9 3 -205 6 -436 6 -406 0 -420 -1 -439 -20z
m878 -6 c25 -18 29 -60 8 -90 -14 -18 -32 -19 -408 -22 -216 -2 -407 0 -425 3
-42 8 -63 29 -63 65 0 60 2 60 455 60 355 0 414 -2 433 -16z"/>
<path d="M4722 1497 c-31 -33 -29 -80 4 -106 26 -20 37 -21 435 -21 278 0 416
4 432 11 25 11 47 47 47 75 0 8 -11 26 -25 39 l-24 25 -424 0 -424 0 -21 -23z
m878 -5 c27 -22 30 -67 6 -90 -15 -15 -59 -17 -435 -17 -398 0 -420 1 -440 19
-26 24 -27 60 -1 86 19 19 33 20 434 20 384 0 415 -1 436 -18z"/>
<path d="M613 1148 c-48 -23 -51 -103 -4 -127 27 -15 945 -15 972 0 48 25 44
105 -7 128 -33 15 -929 14 -961 -1z m971 -24 c24 -23 20 -70 -6 -88 -20 -14
-82 -16 -483 -16 -512 0 -505 -1 -505 64 0 17 5 37 12 44 9 9 131 12 489 12
421 0 479 -2 493 -16z"/>
<path d="M4726 1139 c-34 -27 -36 -79 -4 -109 21 -20 33 -20 495 -20 l474 0
24 25 c14 13 25 36 25 50 0 14 -11 37 -25 50 l-24 25 -469 0 c-460 0 -470 0
-496 -21z m988 -21 c22 -31 20 -45 -9 -73 l-24 -25 -466 0 c-452 0 -466 1
-485 20 -24 24 -26 57 -3 82 15 17 44 18 494 18 l478 0 15 -22z"/>
<path d="M1768 1043 c6 -2 18 -2 25 0 6 3 1 5 -13 5 -14 0 -19 -2 -12 -5z"/>
<path d="M4528 1043 c6 -2 18 -2 25 0 6 3 1 5 -13 5 -14 0 -19 -2 -12 -5z"/>
<path d="M1823 1033 c9 -2 23 -2 30 0 6 3 -1 5 -18 5 -16 0 -22 -2 -12 -5z"/>
<path d="M4473 1033 c9 -2 23 -2 30 0 6 3 -1 5 -18 5 -16 0 -22 -2 -12 -5z"/>
<path d="M1893 1023 c9 -2 25 -2 35 0 9 3 1 5 -18 5 -19 0 -27 -2 -17 -5z"/>
<path d="M4393 1023 c9 -2 25 -2 35 0 9 3 1 5 -18 5 -19 0 -27 -2 -17 -5z"/>
<path d="M1993 1013 c15 -2 37 -2 50 0 12 2 0 4 -28 4 -27 0 -38 -2 -22 -4z"/>
<path d="M4283 1013 c15 -2 37 -2 50 0 12 2 0 4 -28 4 -27 0 -38 -2 -22 -4z"/>
<path d="M2128 1003 c18 -2 45 -2 60 0 15 2 0 4 -33 4 -33 0 -45 -2 -27 -4z"/>
<path d="M4143 1003 c15 -2 39 -2 55 0 15 2 2 4 -28 4 -30 0 -43 -2 -27 -4z"/>
<path d="M2303 993 c20 -2 54 -2 75 0 20 2 3 4 -38 4 -41 0 -58 -2 -37 -4z"/>
<path d="M3943 993 c20 -2 54 -2 75 0 20 2 3 4 -38 4 -41 0 -58 -2 -37 -4z"/>
<path d="M2563 983 c37 -2 96 -2 130 0 34 2 4 3 -68 3 -71 0 -99 -1 -62 -3z"/>
<path d="M3633 983 c37 -2 96 -2 130 0 34 2 4 3 -68 3 -71 0 -99 -1 -62 -3z"/>
<path d="M3088 973 c39 -2 105 -2 145 0 39 1 7 3 -73 3 -80 0 -112 -2 -72 -3z"/>
</g>
</svg>
